<svg xmlns="http://www.w3.org/2000/svg" viewBox="-13.26 -134.69 498.21 177.38">
<path fill="#FFFFFF" fill-rule="evenodd" d="M55.43 -100.00 L40.37 -28.57 L81.21 -28.57 L75.16 0.00 L-3.26 0.00 L17.86 -100.00Z M153.11 -60.87 L161.34 -100.00 L198.91 -100.00 L177.80 0.00 L146.12 0.00 L126.55 -39.13 L118.32 0.00 L80.75 0.00 L101.86 -100.00 L133.39 -100.00Z M202.33 -69.25 L208.85 -100.00 L292.86 -100.00 L288.35 -78.73 L241.61 -28.57 L278.73 -28.57 L272.67 0.00 L185.56 0.00 L189.44 -18.48 L236.80 -69.25Z"/>
<path fill="#FFFFFF" fill-rule="evenodd" d="M49.97 28.46 L49.17 32.31 L34.73 32.31 L38.95 12.31 L43.95 12.31 L40.53 28.46Z M62.37 20.35 L70.97 20.35 L70.16 24.27 L61.56 24.27 L60.66 28.46 L70.41 28.46 L69.60 32.31 L54.85 32.31 L59.07 12.31 L73.83 12.31 L73.02 16.16 L63.27 16.16Z M79.97 12.31 L84.97 12.31 L80.75 32.31 L75.75 32.31Z M104.69 12.31 L109.73 12.31 L105.50 32.31 L101.19 32.31 L95.19 20.39 L92.68 32.31 L87.68 32.31 L91.90 12.31 L96.19 12.31 L102.18 24.27Z M131.93 12.31 L131.34 15.11 L119.23 28.46 L128.70 28.46 L127.89 32.31 L111.78 32.31 L112.30 29.76 L124.54 16.29 L115.63 16.29 L116.47 12.31Z M141.62 20.35 L150.22 20.35 L149.42 24.27 L140.81 24.27 L139.91 28.46 L149.66 28.46 L148.86 32.31 L134.10 32.31 L138.33 12.31 L153.08 12.31 L152.27 16.16 L142.52 16.16Z M210.84 32.46 L210.39 32.38 L209.95 32.27 L209.53 32.14 L209.12 32.00 L208.73 31.83 L208.34 31.64 L207.98 31.44 L207.63 31.22 L207.31 30.98 L207.01 30.73 L206.73 30.46 L206.46 30.18 L206.22 29.88 L206.00 29.56 L205.80 29.23 L205.63 28.88 L205.47 28.52 L205.34 28.14 L205.24 27.75 L205.17 27.35 L205.12 26.94 L205.10 26.52 L205.11 26.08 L205.14 25.63 L205.20 25.17 L205.28 24.70 L207.89 12.31 L212.89 12.31 L210.38 24.24 L210.30 24.64 L210.25 25.03 L210.22 25.39 L210.22 25.73 L210.23 26.05 L210.28 26.35 L210.34 26.63 L210.43 26.89 L210.54 27.13 L210.67 27.34 L210.83 27.54 L211.03 27.71 L211.25 27.86 L211.50 28.00 L211.79 28.11 L212.10 28.20 L212.45 28.27 L212.82 28.33 L213.23 28.36 L213.67 28.37 L214.12 28.36 L214.54 28.33 L214.95 28.27 L215.33 28.20 L215.69 28.11 L216.03 28.00 L216.34 27.86 L216.63 27.71 L216.90 27.54 L217.15 27.34 L217.38 27.13 L217.59 26.89 L217.79 26.63 L217.97 26.35 L218.14 26.05 L218.30 25.73 L218.44 25.39 L218.56 25.03 L218.67 24.64 L218.76 24.24 L221.28 12.31 L226.28 12.31 L223.67 24.70 L223.48 25.49 L223.25 26.23 L222.97 26.94 L222.67 27.60 L222.32 28.22 L221.93 28.79 L221.51 29.33 L221.05 29.82 L220.55 30.27 L220.01 30.68 L219.43 31.05 L218.82 31.38 L218.18 31.67 L217.51 31.92 L216.80 32.14 L216.06 32.31 L215.29 32.45 L214.48 32.54 L213.64 32.60 L212.77 32.62 L212.27 32.61 L211.78 32.58 L211.30 32.53Z M166.05 32.55 L165.69 32.51 L165.33 32.48 L164.98 32.43 L164.64 32.38 L164.31 32.33 L163.98 32.26 L163.66 32.20 L163.36 32.13 L163.06 32.05 L162.78 31.97 L162.51 31.88 L162.25 31.78 L162.00 31.69 L161.76 31.58 L161.53 31.47 L162.43 27.22 L162.69 27.33 L162.95 27.44 L163.22 27.55 L163.49 27.65 L163.77 27.75 L164.06 27.85 L164.35 27.94 L164.65 28.02 L164.96 28.10 L165.27 28.18 L165.58 28.25 L165.89 28.31 L166.20 28.37 L166.51 28.42 L166.82 28.46 L167.12 28.49 L167.43 28.52 L167.73 28.54 L168.03 28.55 L168.33 28.55 L168.69 28.55 L169.04 28.54 L169.37 28.52 L169.68 28.50 L169.97 28.47 L170.25 28.43 L170.51 28.39 L170.75 28.33 L170.98 28.28 L171.19 28.21 L171.38 28.13 L171.55 28.04 L171.71 27.93 L171.86 27.81 L171.99 27.67 L172.11 27.51 L172.21 27.34 L172.30 27.15 L172.37 26.94 L172.43 26.72 L172.45 26.57 L172.47 26.42 L172.48 26.28 L172.47 26.15 L172.46 26.02 L172.44 25.90 L172.40 25.79 L172.36 25.68 L172.30 25.57 L172.24 25.48 L172.17 25.39 L172.08 25.30 L171.98 25.21 L171.87 25.12 L171.75 25.04 L171.61 24.96 L171.47 24.88 L171.31 24.80 L171.14 24.73 L170.95 24.66 L170.76 24.58 L170.55 24.51 L170.32 24.43 L170.09 24.35 L169.84 24.26 L169.58 24.18 L169.30 24.09 L169.01 23.99 L168.71 23.90 L168.39 23.80 L167.83 23.62 L167.31 23.42 L166.83 23.22 L166.39 23.01 L165.99 22.80 L165.62 22.57 L165.30 22.33 L165.01 22.09 L164.76 21.84 L164.56 21.58 L164.38 21.31 L164.23 21.01 L164.12 20.70 L164.03 20.36 L163.97 20.00 L163.94 19.62 L163.94 19.22 L163.96 18.80 L164.02 18.36 L164.10 17.90 L164.25 17.34 L164.42 16.81 L164.64 16.31 L164.88 15.83 L165.16 15.38 L165.48 14.95 L165.83 14.55 L166.22 14.18 L166.64 13.84 L167.10 13.52 L167.59 13.23 L168.12 12.97 L168.67 12.75 L169.26 12.55 L169.89 12.38 L170.54 12.24 L171.23 12.14 L171.95 12.06 L172.70 12.02 L173.48 12.00 L173.83 12.00 L174.17 12.01 L174.51 12.02 L174.85 12.04 L175.18 12.07 L175.51 12.10 L175.84 12.13 L176.17 12.17 L176.49 12.21 L176.81 12.26 L177.12 12.32 L177.42 12.37 L177.70 12.43 L177.97 12.49 L178.24 12.55 L178.48 12.61 L178.72 12.67 L178.94 12.74 L179.15 12.80 L179.35 12.87 L178.42 17.16 L178.17 17.05 L177.92 16.96 L177.67 16.86 L177.42 16.78 L177.17 16.70 L176.91 16.62 L176.66 16.55 L176.40 16.49 L176.15 16.43 L175.89 16.38 L175.63 16.33 L175.38 16.29 L175.12 16.25 L174.86 16.22 L174.61 16.19 L174.35 16.17 L174.09 16.15 L173.84 16.14 L173.58 16.13 L173.33 16.13 L173.00 16.13 L172.68 16.14 L172.37 16.16 L172.08 16.18 L171.80 16.21 L171.52 16.24 L171.26 16.28 L171.01 16.33 L170.78 16.38 L170.55 16.44 L170.34 16.51 L170.14 16.60 L169.96 16.70 L169.80 16.82 L169.66 16.95 L169.53 17.10 L169.42 17.27 L169.33 17.45 L169.26 17.65 L169.20 17.87 L169.18 18.00 L169.16 18.12 L169.16 18.24 L169.16 18.35 L169.17 18.46 L169.19 18.56 L169.22 18.65 L169.26 18.74 L169.30 18.83 L169.35 18.91 L169.41 18.99 L169.49 19.06 L169.57 19.14 L169.67 19.21 L169.78 19.28 L169.90 19.35 L170.03 19.42 L170.17 19.48 L170.32 19.55 L170.49 19.61 L170.66 19.67 L170.85 19.74 L171.06 19.81 L171.27 19.88 L171.50 19.95 L171.74 20.03 L171.99 20.10 L172.26 20.19 L172.54 20.27 L172.83 20.35 L173.29 20.49 L173.71 20.63 L174.12 20.77 L174.50 20.92 L174.85 21.07 L175.18 21.23 L175.49 21.40 L175.77 21.57 L176.03 21.74 L176.26 21.92 L176.48 22.11 L176.67 22.30 L176.85 22.50 L177.01 22.70 L177.15 22.91 L177.28 23.12 L177.39 23.34 L177.48 23.57 L177.56 23.80 L177.61 24.03 L177.66 24.28 L177.69 24.52 L177.71 24.78 L177.72 25.04 L177.72 25.30 L177.71 25.58 L177.69 25.85 L177.65 26.14 L177.61 26.43 L177.55 26.72 L177.42 27.24 L177.25 27.74 L177.05 28.21 L176.81 28.67 L176.53 29.11 L176.22 29.52 L175.86 29.92 L175.47 30.30 L175.05 30.65 L174.59 30.99 L174.09 31.30 L173.55 31.58 L172.98 31.82 L172.37 32.03 L171.73 32.21 L171.04 32.36 L170.33 32.47 L169.57 32.56 L168.78 32.60 L167.96 32.62 L167.56 32.62 L167.17 32.61 L166.79 32.59 L166.42 32.57Z M201.59 16.16 L195.72 16.16 L192.30 32.31 L187.30 32.31 L190.72 16.16 L184.85 16.16 L185.66 12.31 L202.40 12.31Z M243.29 12.40 L243.79 12.47 L244.26 12.57 L244.72 12.68 L245.16 12.81 L245.58 12.97 L245.98 13.14 L246.37 13.34 L246.74 13.55 L247.08 13.79 L247.40 14.06 L247.70 14.35 L247.97 14.66 L248.22 15.00 L248.45 15.36 L248.65 15.75 L248.83 16.16 L248.98 16.60 L249.11 17.06 L249.21 17.55 L249.28 18.06 L249.32 18.60 L249.33 19.17 L249.31 19.77 L249.27 20.40 L249.19 21.05 L249.08 21.73 L248.95 22.43 L248.80 23.11 L248.64 23.75 L248.47 24.37 L248.28 24.97 L248.08 25.54 L247.87 26.09 L247.65 26.62 L247.41 27.12 L247.16 27.59 L246.90 28.04 L246.62 28.47 L246.33 28.87 L246.02 29.25 L245.69 29.61 L245.35 29.94 L244.99 30.25 L244.61 30.54 L244.22 30.81 L243.80 31.05 L243.37 31.27 L242.93 31.47 L242.46 31.64 L241.96 31.80 L241.45 31.94 L240.91 32.05 L240.35 32.14 L239.77 32.22 L239.17 32.27 L238.54 32.30 L237.89 32.31 L228.83 32.31 L233.05 12.31 L241.71 12.31 L242.26 12.32 L242.78 12.35Z M238.65 28.42 L238.98 28.38 L239.28 28.34 L239.58 28.29 L239.86 28.22 L240.13 28.15 L240.38 28.07 L240.63 27.98 L240.86 27.87 L241.08 27.75 L241.30 27.62 L241.50 27.46 L241.70 27.29 L241.89 27.10 L242.07 26.90 L242.25 26.68 L242.41 26.45 L242.57 26.19 L242.72 25.92 L242.86 25.62 L243.00 25.31 L243.14 24.97 L243.27 24.60 L243.40 24.21 L243.52 23.80 L243.64 23.37 L243.75 22.91 L243.86 22.43 L243.96 21.95 L244.04 21.49 L244.12 21.05 L244.18 20.63 L244.23 20.23 L244.27 19.86 L244.29 19.51 L244.30 19.19 L244.30 18.88 L244.29 18.60 L244.26 18.34 L244.22 18.09 L244.16 17.86 L244.08 17.65 L243.98 17.45 L243.87 17.27 L243.74 17.10 L243.60 16.95 L243.43 16.82 L243.25 16.70 L243.05 16.60 L242.83 16.51 L242.58 16.43 L242.31 16.36 L242.02 16.30 L241.71 16.25 L241.37 16.21 L241.01 16.18 L240.63 16.17 L240.22 16.16 L237.24 16.16 L234.63 28.46 L237.61 28.46 L237.97 28.45 L238.32 28.44Z M257.37 12.31 L262.37 12.31 L258.14 32.31 L253.14 32.31Z M271.10 32.22 L270.63 32.07 L270.18 31.91 L269.75 31.72 L269.34 31.50 L268.95 31.27 L268.59 31.01 L268.25 30.73 L267.93 30.42 L267.64 30.10 L267.38 29.75 L267.13 29.37 L266.92 28.98 L266.73 28.56 L266.56 28.12 L266.42 27.65 L266.31 27.16 L266.23 26.65 L266.18 26.12 L266.16 25.56 L266.17 24.97 L266.22 24.37 L266.29 23.74 L266.39 23.08 L266.53 22.40 L266.78 21.32 L267.07 20.31 L267.39 19.35 L267.75 18.46 L268.15 17.63 L268.58 16.86 L269.05 16.16 L269.55 15.52 L270.09 14.94 L270.66 14.42 L271.27 13.96 L271.92 13.55 L272.62 13.19 L273.37 12.87 L274.15 12.61 L274.98 12.39 L275.85 12.22 L276.77 12.10 L277.73 12.02 L278.73 12.00 L279.32 12.01 L279.89 12.04 L280.43 12.10 L280.96 12.18 L281.47 12.28 L281.96 12.40 L282.43 12.54 L282.88 12.71 L283.31 12.89 L283.72 13.10 L284.10 13.33 L284.47 13.59 L284.81 13.87 L285.12 14.18 L285.41 14.50 L285.67 14.86 L285.91 15.23 L286.13 15.63 L286.32 16.06 L286.48 16.50 L286.62 16.98 L286.72 17.47 L286.80 18.00 L286.84 18.55 L286.86 19.13 L286.84 19.73 L286.79 20.36 L286.71 21.01 L286.60 21.70 L286.47 22.40 L286.22 23.43 L285.94 24.39 L285.63 25.30 L285.27 26.16 L284.89 26.96 L284.46 27.71 L283.99 28.40 L283.49 29.03 L282.96 29.61 L282.38 30.14 L281.77 30.61 L281.11 31.03 L280.41 31.40 L279.67 31.73 L278.88 32.00 L278.06 32.22 L277.19 32.40 L276.27 32.52 L275.32 32.60 L274.32 32.62 L273.74 32.61 L273.17 32.58 L272.62 32.52 L272.09 32.44 L271.59 32.34Z M277.48 28.01 L277.87 27.85 L278.23 27.66 L278.58 27.44 L278.91 27.20 L279.21 26.92 L279.50 26.62 L279.77 26.28 L280.02 25.91 L280.26 25.51 L280.48 25.07 L280.69 24.60 L280.88 24.10 L281.05 23.57 L281.20 23.00 L281.34 22.40 L281.43 21.95 L281.51 21.51 L281.58 21.10 L281.63 20.70 L281.67 20.32 L281.70 19.97 L281.72 19.63 L281.72 19.31 L281.71 19.02 L281.68 18.74 L281.64 18.48 L281.59 18.24 L281.52 18.01 L281.43 17.80 L281.33 17.60 L281.21 17.42 L281.08 17.25 L280.93 17.10 L280.76 16.96 L280.58 16.84 L280.38 16.74 L280.17 16.64 L279.93 16.56 L279.68 16.49 L279.41 16.43 L279.12 16.38 L278.82 16.34 L278.50 16.31 L278.16 16.29 L277.80 16.29 L277.30 16.30 L276.83 16.34 L276.37 16.41 L275.94 16.51 L275.53 16.63 L275.14 16.78 L274.77 16.96 L274.42 17.17 L274.10 17.41 L273.79 17.67 L273.51 17.96 L273.24 18.30 L272.99 18.67 L272.75 19.09 L272.52 19.54 L272.31 20.04 L272.12 20.57 L271.94 21.14 L271.77 21.75 L271.62 22.40 L271.54 22.82 L271.47 23.23 L271.41 23.62 L271.37 23.99 L271.33 24.34 L271.31 24.68 L271.30 25.00 L271.30 25.31 L271.32 25.59 L271.34 25.87 L271.38 26.12 L271.43 26.37 L271.50 26.59 L271.59 26.81 L271.69 27.00 L271.81 27.19 L271.94 27.36 L272.09 27.51 L272.25 27.65 L272.43 27.78 L272.62 27.89 L272.84 27.99 L273.07 28.08 L273.32 28.15 L273.59 28.22 L273.88 28.27 L274.19 28.31 L274.51 28.34 L274.86 28.36 L275.22 28.37 L275.72 28.35 L276.19 28.31 L276.64 28.24 L277.07 28.14Z"/>
<path fill="#F5C518" fill-rule="evenodd" d="M370.44 -124.69 L320.70 -1.57 L351.57 -5.91 L389.64 -100.12Z M424.88 -11.16 L424.88 -11.16 L444.07 13.41 L474.95 9.07 L393.19 -95.57 L381.51 -66.67Z M318.54 3.78 L306.86 32.69 L438.36 14.21 L419.16 -10.36 L349.41 -0.56 L349.41 -0.56Z"/>
</svg>
