# LNZ.STD logo - dibuat dari lnz-monogram-1-ligatur.svg
mtllib lnz-monogram-1-ligatur.mtl
o Emas
usemtl Emas
v 7.2036 -5.9137 0.7500
v 8.8513 -4.1669 0.7500
v 8.8572 -4.1396 0.7500
v 3.8986 -4.1396 0.7500
v 9.9209 1.1827 0.7500
v 9.9889 1.1827 0.7500
v 10.0000 1.2367 0.7500
v 9.3732 2.9568 0.7500
v -0.4265 2.9568 0.7500
v -0.8035 1.1827 0.7500
v -1.2027 -0.6949 0.7500
v -2.3485 2.9568 0.7500
v -4.5661 2.9568 0.7500
v -6.0593 -4.0656 0.7500
v -4.2852 -4.0656 0.7500
v -3.5090 -0.4140 0.7500
v -2.3632 -4.0656 0.7500
v -0.1456 -4.0656 0.7500
v 0.9706 1.1827 0.7500
v 7.5554 1.1827 0.7500
v 1.5331 -4.1396 0.7500
v -7.8489 -4.1396 0.7500
v -5.7119 5.9137 0.7500
v -5.7215 5.9137 0.7500
v -7.8179 4.3525 0.7500
v -9.6230 -4.1396 0.7500
v -10.0000 -5.9137 0.7500
v 7.2036 -5.9137 -0.7500
v 8.8513 -4.1669 -0.7500
v 8.8572 -4.1396 -0.7500
v 3.8986 -4.1396 -0.7500
v 9.9209 1.1827 -0.7500
v 9.9889 1.1827 -0.7500
v 10.0000 1.2367 -0.7500
v 9.3732 2.9568 -0.7500
v -0.4265 2.9568 -0.7500
v -0.8035 1.1827 -0.7500
v -1.2027 -0.6949 -0.7500
v -2.3485 2.9568 -0.7500
v -4.5661 2.9568 -0.7500
v -6.0593 -4.0656 -0.7500
v -4.2852 -4.0656 -0.7500
v -3.5090 -0.4140 -0.7500
v -2.3632 -4.0656 -0.7500
v -0.1456 -4.0656 -0.7500
v 0.9706 1.1827 -0.7500
v 7.5554 1.1827 -0.7500
v 1.5331 -4.1396 -0.7500
v -7.8489 -4.1396 -0.7500
v -5.7119 5.9137 -0.7500
v -5.7215 5.9137 -0.7500
v -7.8179 4.3525 -0.7500
v -9.6230 -4.1396 -0.7500
v -10.0000 -5.9137 -0.7500
v -9.6230 -4.1396 -0.7500
v -10.0000 -5.9137 -0.7500
v -10.0000 -5.9137 0.7500
v -9.6230 -4.1396 0.7500
v -10.0000 -5.9137 -0.7500
v 7.2036 -5.9137 -0.7500
v 7.2036 -5.9137 0.7500
v -10.0000 -5.9137 0.7500
v 7.2036 -5.9137 -0.7500
v 8.8513 -4.1669 -0.7500
v 8.8513 -4.1669 0.7500
v 7.2036 -5.9137 0.7500
v 8.8513 -4.1669 -0.7500
v 8.8572 -4.1396 -0.7500
v 8.8572 -4.1396 0.7500
v 8.8513 -4.1669 0.7500
v 9.9209 1.1827 -0.7500
v 9.9889 1.1827 -0.7500
v 9.9889 1.1827 0.7500
v 9.9209 1.1827 0.7500
v 9.9889 1.1827 -0.7500
v 10.0000 1.2367 -0.7500
v 10.0000 1.2367 0.7500
v 9.9889 1.1827 0.7500
v 10.0000 1.2367 -0.7500
v 9.3732 2.9568 -0.7500
v 9.3732 2.9568 0.7500
v 10.0000 1.2367 0.7500
v 9.3732 2.9568 -0.7500
v -0.4265 2.9568 -0.7500
v -0.4265 2.9568 0.7500
v 9.3732 2.9568 0.7500
v -1.2027 -0.6949 -0.7500
v -2.3485 2.9568 -0.7500
v -2.3485 2.9568 0.7500
v -1.2027 -0.6949 0.7500
v -2.3485 2.9568 -0.7500
v -4.5661 2.9568 -0.7500
v -4.5661 2.9568 0.7500
v -2.3485 2.9568 0.7500
v -4.5661 2.9568 -0.7500
v -6.0593 -4.0656 -0.7500
v -6.0593 -4.0656 0.7500
v -4.5661 2.9568 0.7500
v -6.0593 -4.0656 -0.7500
v -4.2852 -4.0656 -0.7500
v -4.2852 -4.0656 0.7500
v -6.0593 -4.0656 0.7500
v -3.5090 -0.4140 -0.7500
v -2.3632 -4.0656 -0.7500
v -2.3632 -4.0656 0.7500
v -3.5090 -0.4140 0.7500
v -2.3632 -4.0656 -0.7500
v -0.1456 -4.0656 -0.7500
v -0.1456 -4.0656 0.7500
v -2.3632 -4.0656 0.7500
v -7.8489 -4.1396 -0.7500
v -5.7119 5.9137 -0.7500
v -5.7119 5.9137 0.7500
v -7.8489 -4.1396 0.7500
v -5.7119 5.9137 -0.7500
v -5.7215 5.9137 -0.7500
v -5.7215 5.9137 0.7500
v -5.7119 5.9137 0.7500
v -5.7215 5.9137 -0.7500
v -7.8179 4.3525 -0.7500
v -7.8179 4.3525 0.7500
v -5.7215 5.9137 0.7500
v -7.8179 4.3525 -0.7500
v -9.6230 -4.1396 -0.7500
v -9.6230 -4.1396 0.7500
v -7.8179 4.3525 0.7500
v 8.8572 -4.1396 -0.7500
v 3.8986 -4.1396 -0.7500
v 3.8986 -4.1396 0.7500
v 8.8572 -4.1396 0.7500
v -4.2852 -4.0656 -0.7500
v -3.5090 -0.4140 -0.7500
v -3.5090 -0.4140 0.7500
v -4.2852 -4.0656 0.7500
v 1.5331 -4.1396 -0.7500
v -7.8489 -4.1396 -0.7500
v -7.8489 -4.1396 0.7500
v 1.5331 -4.1396 0.7500
v -0.8035 1.1827 -0.7500
v -1.2027 -0.6949 -0.7500
v -1.2027 -0.6949 0.7500
v -0.8035 1.1827 0.7500
v -0.4265 2.9568 -0.7500
v -0.8035 1.1827 -0.7500
v -0.8035 1.1827 0.7500
v -0.4265 2.9568 0.7500
v 7.5554 1.1827 -0.7500
v 1.5331 -4.1396 -0.7500
v 1.5331 -4.1396 0.7500
v 7.5554 1.1827 0.7500
v -0.1456 -4.0656 -0.7500
v 0.9706 1.1827 -0.7500
v 0.9706 1.1827 0.7500
v -0.1456 -4.0656 0.7500
v 3.8986 -4.1396 -0.7500
v 9.9209 1.1827 -0.7500
v 9.9209 1.1827 0.7500
v 3.8986 -4.1396 0.7500
v 0.9706 1.1827 -0.7500
v 7.5554 1.1827 -0.7500
v 7.5554 1.1827 0.7500
v 0.9706 1.1827 0.7500
f 26 27 1
f 1 2 3
f 5 6 7
f 7 8 9
f 11 12 13
f 13 14 15
f 16 17 18
f 22 23 24
f 24 25 26
f 1 3 4
f 5 7 9
f 13 15 16
f 22 24 26
f 11 13 16
f 22 26 1
f 11 16 18
f 21 22 1
f 10 11 18
f 21 1 4
f 9 10 18
f 20 21 4
f 9 18 19
f 20 4 5
f 9 19 20
f 20 5 9
f 53 28 54
f 28 30 29
f 32 34 33
f 34 36 35
f 38 40 39
f 40 42 41
f 43 45 44
f 49 51 50
f 51 53 52
f 28 31 30
f 32 36 34
f 40 43 42
f 49 53 51
f 38 43 40
f 49 28 53
f 38 45 43
f 48 28 49
f 37 45 38
f 48 31 28
f 36 45 37
f 47 31 48
f 36 46 45
f 47 32 31
f 36 47 46
f 47 36 32
f 55 56 57
f 55 57 58
f 59 60 61
f 59 61 62
f 63 64 65
f 63 65 66
f 67 68 69
f 67 69 70
f 71 72 73
f 71 73 74
f 75 76 77
f 75 77 78
f 79 80 81
f 79 81 82
f 83 84 85
f 83 85 86
f 87 88 89
f 87 89 90
f 91 92 93
f 91 93 94
f 95 96 97
f 95 97 98
f 99 100 101
f 99 101 102
f 103 104 105
f 103 105 106
f 107 108 109
f 107 109 110
f 111 112 113
f 111 113 114
f 115 116 117
f 115 117 118
f 119 120 121
f 119 121 122
f 123 124 125
f 123 125 126
f 127 128 129
f 127 129 130
f 131 132 133
f 131 133 134
f 135 136 137
f 135 137 138
f 139 140 141
f 139 141 142
f 143 144 145
f 143 145 146
f 147 148 149
f 147 149 150
f 151 152 153
f 151 153 154
f 155 156 157
f 155 157 158
f 159 160 161
f 159 161 162
