# LNZ.STD logo - dibuat dari lnz-monogram-3-bingkai.svg
mtllib lnz-monogram-3-bingkai.mtl
o Emas
usemtl Emas
v -6.1618 7.7236 0.7500
v -8.8709 -7.6364 0.7500
v -9.2873 -10.0000 0.7500
v 4.9436 -10.0000 0.7500
v 6.5700 -7.7155 0.7500
v 6.5836 -7.6364 0.7500
v -6.5073 -7.6364 0.7500
v -3.3973 10.0000 0.7500
v -3.4009 10.0000 0.7500
v -6.1618 7.7236 -0.7500
v -8.8709 -7.6364 -0.7500
v -9.2873 -10.0000 -0.7500
v 4.9436 -10.0000 -0.7500
v 6.5700 -7.7155 -0.7500
v 6.5836 -7.6364 -0.7500
v -6.5073 -7.6364 -0.7500
v -3.3973 10.0000 -0.7500
v -3.4009 10.0000 -0.7500
v -3.3973 10.0000 -0.7500
v -3.4009 10.0000 -0.7500
v -3.4009 10.0000 0.7500
v -3.3973 10.0000 0.7500
v -3.4009 10.0000 -0.7500
v -6.1618 7.7236 -0.7500
v -6.1618 7.7236 0.7500
v -3.4009 10.0000 0.7500
v -6.1618 7.7236 -0.7500
v -8.8709 -7.6364 -0.7500
v -8.8709 -7.6364 0.7500
v -6.1618 7.7236 0.7500
v -8.8709 -7.6364 -0.7500
v -9.2873 -10.0000 -0.7500
v -9.2873 -10.0000 0.7500
v -8.8709 -7.6364 0.7500
v -9.2873 -10.0000 -0.7500
v 4.9436 -10.0000 -0.7500
v 4.9436 -10.0000 0.7500
v -9.2873 -10.0000 0.7500
v 4.9436 -10.0000 -0.7500
v 6.5700 -7.7155 -0.7500
v 6.5700 -7.7155 0.7500
v 4.9436 -10.0000 0.7500
v 6.5700 -7.7155 -0.7500
v 6.5836 -7.6364 -0.7500
v 6.5836 -7.6364 0.7500
v 6.5700 -7.7155 0.7500
v 6.5836 -7.6364 -0.7500
v -6.5073 -7.6364 -0.7500
v -6.5073 -7.6364 0.7500
v 6.5836 -7.6364 0.7500
v -6.5073 -7.6364 -0.7500
v -3.3973 10.0000 -0.7500
v -3.3973 10.0000 0.7500
v -6.5073 -7.6364 0.7500
f 8 9 1
f 1 2 3
f 3 4 5
f 5 6 7
f 7 8 1
f 3 5 7
f 7 1 3
f 17 10 18
f 10 12 11
f 12 14 13
f 14 16 15
f 16 10 17
f 12 16 14
f 16 12 10
f 19 20 21
f 19 21 22
f 23 24 25
f 23 25 26
f 27 28 29
f 27 29 30
f 31 32 33
f 31 33 34
f 35 36 37
f 35 37 38
f 39 40 41
f 39 41 42
f 43 44 45
f 43 45 46
f 47 48 49
f 47 49 50
f 51 52 53
f 51 53 54
o Putih
usemtl Putih
v -2.6318 7.6364 0.7500
v 5.8127 7.6364 0.7500
v -3.1291 3.7273 0.7500
v -3.3209 3.7273 0.7500
v -3.3373 3.6364 0.7500
v -3.7382 1.3636 0.7500
v 8.1709 1.3636 0.7500
v 8.5882 3.7273 0.7500
v 0.1436 3.7273 0.7500
v 9.0855 7.6364 0.7500
v 9.2773 7.6364 0.7500
v 9.2873 7.6955 0.7500
v 8.2945 10.0000 0.7500
v -2.2155 10.0000 0.7500
v -2.6318 7.6364 -0.7500
v 5.8127 7.6364 -0.7500
v -3.1291 3.7273 -0.7500
v -3.3209 3.7273 -0.7500
v -3.3373 3.6364 -0.7500
v -3.7382 1.3636 -0.7500
v 8.1709 1.3636 -0.7500
v 8.5882 3.7273 -0.7500
v 0.1436 3.7273 -0.7500
v 9.0855 7.6364 -0.7500
v 9.2773 7.6364 -0.7500
v 9.2873 7.6955 -0.7500
v 8.2945 10.0000 -0.7500
v -2.2155 10.0000 -0.7500
v 8.2945 10.0000 -0.7500
v -2.2155 10.0000 -0.7500
v -2.2155 10.0000 0.7500
v 8.2945 10.0000 0.7500
v -2.2155 10.0000 -0.7500
v -2.6318 7.6364 -0.7500
v -2.6318 7.6364 0.7500
v -2.2155 10.0000 0.7500
v -3.1291 3.7273 -0.7500
v -3.3209 3.7273 -0.7500
v -3.3209 3.7273 0.7500
v -3.1291 3.7273 0.7500
v -3.3209 3.7273 -0.7500
v -3.3373 3.6364 -0.7500
v -3.3373 3.6364 0.7500
v -3.3209 3.7273 0.7500
v -3.3373 3.6364 -0.7500
v -3.7382 1.3636 -0.7500
v -3.7382 1.3636 0.7500
v -3.3373 3.6364 0.7500
v -3.7382 1.3636 -0.7500
v 8.1709 1.3636 -0.7500
v 8.1709 1.3636 0.7500
v -3.7382 1.3636 0.7500
v 8.1709 1.3636 -0.7500
v 8.5882 3.7273 -0.7500
v 8.5882 3.7273 0.7500
v 8.1709 1.3636 0.7500
v 8.5882 3.7273 -0.7500
v 0.1436 3.7273 -0.7500
v 0.1436 3.7273 0.7500
v 8.5882 3.7273 0.7500
v 9.0855 7.6364 -0.7500
v 9.2773 7.6364 -0.7500
v 9.2773 7.6364 0.7500
v 9.0855 7.6364 0.7500
v 9.2773 7.6364 -0.7500
v 9.2873 7.6955 -0.7500
v 9.2873 7.6955 0.7500
v 9.2773 7.6364 0.7500
v 9.2873 7.6955 -0.7500
v 8.2945 10.0000 -0.7500
v 8.2945 10.0000 0.7500
v 9.2873 7.6955 0.7500
v -2.6318 7.6364 -0.7500
v 5.8127 7.6364 -0.7500
v 5.8127 7.6364 0.7500
v -2.6318 7.6364 0.7500
v 5.8127 7.6364 -0.7500
v -3.1291 3.7273 -0.7500
v -3.1291 3.7273 0.7500
v 5.8127 7.6364 0.7500
v 0.1436 3.7273 -0.7500
v 9.0855 7.6364 -0.7500
v 9.0855 7.6364 0.7500
v 0.1436 3.7273 0.7500
f 67 68 55
f 57 58 59
f 59 60 61
f 61 62 63
f 64 65 66
f 66 67 55
f 57 59 61
f 66 55 56
f 57 61 63
f 64 66 56
f 56 57 63
f 63 64 56
f 81 69 82
f 71 73 72
f 73 75 74
f 75 77 76
f 78 80 79
f 80 69 81
f 71 75 73
f 80 70 69
f 71 77 75
f 78 70 80
f 70 77 71
f 77 70 78
f 83 84 85
f 83 85 86
f 87 88 89
f 87 89 90
f 91 92 93
f 91 93 94
f 95 96 97
f 95 97 98
f 99 100 101
f 99 101 102
f 103 104 105
f 103 105 106
f 107 108 109
f 107 109 110
f 111 112 113
f 111 113 114
f 115 116 117
f 115 117 118
f 119 120 121
f 119 121 122
f 123 124 125
f 123 125 126
f 127 128 129
f 127 129 130
f 131 132 133
f 131 133 134
f 135 136 137
f 135 137 138
v -1.9027 -1.6345 0.7500
v 3.5200 -6.4545 0.7500
v 6.7927 -6.4545 0.7500
v 7.9627 0.1818 0.7500
v 5.5991 0.1818 0.7500
v 4.7491 -4.6382 0.7500
v -0.6736 0.1818 0.7500
v -3.9464 0.1818 0.7500
v -5.1164 -6.4545 0.7500
v -2.7527 -6.4545 0.7500
v -1.9027 -1.6345 -0.7500
v 3.5200 -6.4545 -0.7500
v 6.7927 -6.4545 -0.7500
v 7.9627 0.1818 -0.7500
v 5.5991 0.1818 -0.7500
v 4.7491 -4.6382 -0.7500
v -0.6736 0.1818 -0.7500
v -3.9464 0.1818 -0.7500
v -5.1164 -6.4545 -0.7500
v -2.7527 -6.4545 -0.7500
v -5.1164 -6.4545 -0.7500
v -2.7527 -6.4545 -0.7500
v -2.7527 -6.4545 0.7500
v -5.1164 -6.4545 0.7500
v -2.7527 -6.4545 -0.7500
v -1.9027 -1.6345 -0.7500
v -1.9027 -1.6345 0.7500
v -2.7527 -6.4545 0.7500
v -1.9027 -1.6345 -0.7500
v 3.5200 -6.4545 -0.7500
v 3.5200 -6.4545 0.7500
v -1.9027 -1.6345 0.7500
v 3.5200 -6.4545 -0.7500
v 6.7927 -6.4545 -0.7500
v 6.7927 -6.4545 0.7500
v 3.5200 -6.4545 0.7500
v 6.7927 -6.4545 -0.7500
v 7.9627 0.1818 -0.7500
v 7.9627 0.1818 0.7500
v 6.7927 -6.4545 0.7500
v 7.9627 0.1818 -0.7500
v 5.5991 0.1818 -0.7500
v 5.5991 0.1818 0.7500
v 7.9627 0.1818 0.7500
v 4.7491 -4.6382 -0.7500
v -0.6736 0.1818 -0.7500
v -0.6736 0.1818 0.7500
v 4.7491 -4.6382 0.7500
v -0.6736 0.1818 -0.7500
v -3.9464 0.1818 -0.7500
v -3.9464 0.1818 0.7500
v -0.6736 0.1818 0.7500
v -3.9464 0.1818 -0.7500
v -5.1164 -6.4545 -0.7500
v -5.1164 -6.4545 0.7500
v -3.9464 0.1818 0.7500
v 5.5991 0.1818 -0.7500
v 4.7491 -4.6382 -0.7500
v 4.7491 -4.6382 0.7500
v 5.5991 0.1818 0.7500
f 147 148 139
f 139 140 141
f 141 142 143
f 144 145 146
f 146 147 139
f 141 143 144
f 144 146 139
f 139 141 144
f 157 149 158
f 149 151 150
f 151 153 152
f 154 156 155
f 156 149 157
f 151 154 153
f 154 149 156
f 149 154 151
f 159 160 161
f 159 161 162
f 163 164 165
f 163 165 166
f 167 168 169
f 167 169 170
f 171 172 173
f 171 173 174
f 175 176 177
f 175 177 178
f 179 180 181
f 179 181 182
f 183 184 185
f 183 185 186
f 187 188 189
f 187 189 190
f 191 192 193
f 191 193 194
f 195 196 197
f 195 197 198
