# LNZ.STD logo - dibuat dari lnz-monogram-2-anyaman.svg
mtllib lnz-monogram-2-anyaman.mtl
o Putih
usemtl Putih
v -2.5453 -2.5350 0.7500
v -1.9730 0.7081 0.7500
v -3.7389 5.8005 0.7500
v -4.8036 5.8005 0.7500
v -7.6712 3.9718 0.7500
v -9.3186 -5.3708 0.7500
v -9.5454 -6.6598 0.7500
v -10.0000 -9.2378 0.7500
v 7.1866 -9.2378 0.7500
v 7.6334 -6.7045 0.7500
v 7.6411 -6.6598 0.7500
v -6.9674 -6.6598 0.7500
v -6.7406 -5.3708 0.7500
v -5.6398 0.8722 0.7500
v -3.4751 -5.3708 0.7500
v 0.1341 -5.3708 0.7500
v 0.6342 -2.5350 0.7500
v -2.5453 -2.5350 -0.7500
v -1.9730 0.7081 -0.7500
v -3.7389 5.8005 -0.7500
v -4.8036 5.8005 -0.7500
v -7.6712 3.9718 -0.7500
v -9.3186 -5.3708 -0.7500
v -9.5454 -6.6598 -0.7500
v -10.0000 -9.2378 -0.7500
v 7.1866 -9.2378 -0.7500
v 7.6334 -6.7045 -0.7500
v 7.6411 -6.6598 -0.7500
v -6.9674 -6.6598 -0.7500
v -6.7406 -5.3708 -0.7500
v -5.6398 0.8722 -0.7500
v -3.4751 -5.3708 -0.7500
v 0.1341 -5.3708 -0.7500
v 0.6342 -2.5350 -0.7500
v 0.1341 -5.3708 -0.7500
v 0.6342 -2.5350 -0.7500
v 0.6342 -2.5350 0.7500
v 0.1341 -5.3708 0.7500
v 0.6342 -2.5350 -0.7500
v -2.5453 -2.5350 -0.7500
v -2.5453 -2.5350 0.7500
v 0.6342 -2.5350 0.7500
v -2.5453 -2.5350 -0.7500
v -1.9730 0.7081 -0.7500
v -1.9730 0.7081 0.7500
v -2.5453 -2.5350 0.7500
v -1.9730 0.7081 -0.7500
v -3.7389 5.8005 -0.7500
v -3.7389 5.8005 0.7500
v -1.9730 0.7081 0.7500
v -3.7389 5.8005 -0.7500
v -4.8036 5.8005 -0.7500
v -4.8036 5.8005 0.7500
v -3.7389 5.8005 0.7500
v -4.8036 5.8005 -0.7500
v -7.6712 3.9718 -0.7500
v -7.6712 3.9718 0.7500
v -4.8036 5.8005 0.7500
v -7.6712 3.9718 -0.7500
v -9.3186 -5.3708 -0.7500
v -9.3186 -5.3708 0.7500
v -7.6712 3.9718 0.7500
v -9.3186 -5.3708 -0.7500
v -9.5454 -6.6598 -0.7500
v -9.5454 -6.6598 0.7500
v -9.3186 -5.3708 0.7500
v -9.5454 -6.6598 -0.7500
v -10.0000 -9.2378 -0.7500
v -10.0000 -9.2378 0.7500
v -9.5454 -6.6598 0.7500
v -10.0000 -9.2378 -0.7500
v 7.1866 -9.2378 -0.7500
v 7.1866 -9.2378 0.7500
v -10.0000 -9.2378 0.7500
v 7.1866 -9.2378 -0.7500
v 7.6334 -6.7045 -0.7500
v 7.6334 -6.7045 0.7500
v 7.1866 -9.2378 0.7500
v 7.6334 -6.7045 -0.7500
v 7.6411 -6.6598 -0.7500
v 7.6411 -6.6598 0.7500
v 7.6334 -6.7045 0.7500
v -3.4751 -5.3708 -0.7500
v 0.1341 -5.3708 -0.7500
v 0.1341 -5.3708 0.7500
v -3.4751 -5.3708 0.7500
v 7.6411 -6.6598 -0.7500
v -6.9674 -6.6598 -0.7500
v -6.9674 -6.6598 0.7500
v 7.6411 -6.6598 0.7500
v -5.6398 0.8722 -0.7500
v -3.4751 -5.3708 -0.7500
v -3.4751 -5.3708 0.7500
v -5.6398 0.8722 0.7500
v -6.7406 -5.3708 -0.7500
v -5.6398 0.8722 -0.7500
v -5.6398 0.8722 0.7500
v -6.7406 -5.3708 0.7500
v -6.9674 -6.6598 -0.7500
v -6.7406 -5.3708 -0.7500
v -6.7406 -5.3708 0.7500
v -6.9674 -6.6598 0.7500
f 16 17 1
f 1 2 3
f 3 4 5
f 5 6 7
f 7 8 9
f 9 10 11
f 15 16 1
f 1 3 5
f 9 11 12
f 14 15 1
f 7 9 12
f 14 1 5
f 5 7 12
f 13 14 5
f 5 12 13
f 33 18 34
f 18 20 19
f 20 22 21
f 22 24 23
f 24 26 25
f 26 28 27
f 32 18 33
f 18 22 20
f 26 29 28
f 31 18 32
f 24 29 26
f 31 22 18
f 22 29 24
f 30 22 31
f 22 30 29
f 35 36 37
f 35 37 38
f 39 40 41
f 39 41 42
f 43 44 45
f 43 45 46
f 47 48 49
f 47 49 50
f 51 52 53
f 51 53 54
f 55 56 57
f 55 57 58
f 59 60 61
f 59 61 62
f 63 64 65
f 63 65 66
f 67 68 69
f 67 69 70
f 71 72 73
f 71 73 74
f 75 76 77
f 75 77 78
f 79 80 81
f 79 81 82
f 83 84 85
f 83 85 86
f 87 88 89
f 87 89 90
f 91 92 93
f 91 93 94
f 95 96 97
f 95 97 98
f 99 100 101
f 99 101 102
v -0.4735 5.8005 0.7500
v -1.2520 1.3870 0.7500
v 1.7565 3.8292 0.7500
v 2.1045 5.8005 0.7500
v -0.4735 5.8005 -0.7500
v -1.2520 1.3870 -0.7500
v 1.7565 3.8292 -0.7500
v 2.1045 5.8005 -0.7500
v 1.7565 3.8292 -0.7500
v 2.1045 5.8005 -0.7500
v 2.1045 5.8005 0.7500
v 1.7565 3.8292 0.7500
v 2.1045 5.8005 -0.7500
v -0.4735 5.8005 -0.7500
v -0.4735 5.8005 0.7500
v 2.1045 5.8005 0.7500
v -0.4735 5.8005 -0.7500
v -1.2520 1.3870 -0.7500
v -1.2520 1.3870 0.7500
v -0.4735 5.8005 0.7500
v -1.2520 1.3870 -0.7500
v 1.7565 3.8292 -0.7500
v 1.7565 3.8292 0.7500
v -1.2520 1.3870 0.7500
f 105 106 103
f 103 104 105
f 109 107 110
f 107 109 108
f 111 112 113
f 111 113 114
f 115 116 117
f 115 117 118
f 119 120 121
f 119 121 122
f 123 124 125
f 123 125 126
o Emas
usemtl Emas
v -0.3222 6.6598 0.7500
v 6.1176 6.6598 0.7500
v -1.2924 0.6445 0.7500
v -1.3827 0.6445 0.7500
v -1.3981 0.5586 0.7500
v -1.8372 -1.9335 0.7500
v 8.4747 -1.9335 0.7500
v 8.9293 0.6445 0.7500
v 2.4886 0.6445 0.7500
v 9.8986 6.6598 0.7500
v 9.9897 6.6598 0.7500
v 10.0000 6.7182 0.7500
v 8.9482 9.2378 0.7500
v 0.1323 9.2378 0.7500
v -0.3222 6.6598 -0.7500
v 6.1176 6.6598 -0.7500
v -1.2924 0.6445 -0.7500
v -1.3827 0.6445 -0.7500
v -1.3981 0.5586 -0.7500
v -1.8372 -1.9335 -0.7500
v 8.4747 -1.9335 -0.7500
v 8.9293 0.6445 -0.7500
v 2.4886 0.6445 -0.7500
v 9.8986 6.6598 -0.7500
v 9.9897 6.6598 -0.7500
v 10.0000 6.7182 -0.7500
v 8.9482 9.2378 -0.7500
v 0.1323 9.2378 -0.7500
v 8.9482 9.2378 -0.7500
v 0.1323 9.2378 -0.7500
v 0.1323 9.2378 0.7500
v 8.9482 9.2378 0.7500
v 0.1323 9.2378 -0.7500
v -0.3222 6.6598 -0.7500
v -0.3222 6.6598 0.7500
v 0.1323 9.2378 0.7500
v -1.2924 0.6445 -0.7500
v -1.3827 0.6445 -0.7500
v -1.3827 0.6445 0.7500
v -1.2924 0.6445 0.7500
v -1.3827 0.6445 -0.7500
v -1.3981 0.5586 -0.7500
v -1.3981 0.5586 0.7500
v -1.3827 0.6445 0.7500
v -1.3981 0.5586 -0.7500
v -1.8372 -1.9335 -0.7500
v -1.8372 -1.9335 0.7500
v -1.3981 0.5586 0.7500
v -1.8372 -1.9335 -0.7500
v 8.4747 -1.9335 -0.7500
v 8.4747 -1.9335 0.7500
v -1.8372 -1.9335 0.7500
v 8.4747 -1.9335 -0.7500
v 8.9293 0.6445 -0.7500
v 8.9293 0.6445 0.7500
v 8.4747 -1.9335 0.7500
v 8.9293 0.6445 -0.7500
v 2.4886 0.6445 -0.7500
v 2.4886 0.6445 0.7500
v 8.9293 0.6445 0.7500
v 9.8986 6.6598 -0.7500
v 9.9897 6.6598 -0.7500
v 9.9897 6.6598 0.7500
v 9.8986 6.6598 0.7500
v 9.9897 6.6598 -0.7500
v 10.0000 6.7182 -0.7500
v 10.0000 6.7182 0.7500
v 9.9897 6.6598 0.7500
v 10.0000 6.7182 -0.7500
v 8.9482 9.2378 -0.7500
v 8.9482 9.2378 0.7500
v 10.0000 6.7182 0.7500
v 6.1176 6.6598 -0.7500
v -1.2924 0.6445 -0.7500
v -1.2924 0.6445 0.7500
v 6.1176 6.6598 0.7500
v -0.3222 6.6598 -0.7500
v 6.1176 6.6598 -0.7500
v 6.1176 6.6598 0.7500
v -0.3222 6.6598 0.7500
v 2.4886 0.6445 -0.7500
v 9.8986 6.6598 -0.7500
v 9.8986 6.6598 0.7500
v 2.4886 0.6445 0.7500
f 139 140 127
f 129 130 131
f 131 132 133
f 133 134 135
f 136 137 138
f 138 139 127
f 128 129 131
f 131 133 135
f 138 127 128
f 128 131 135
f 136 138 128
f 128 135 136
f 153 141 154
f 143 145 144
f 145 147 146
f 147 149 148
f 150 152 151
f 152 141 153
f 142 145 143
f 145 149 147
f 152 142 141
f 142 149 145
f 150 142 152
f 142 150 149
f 155 156 157
f 155 157 158
f 159 160 161
f 159 161 162
f 163 164 165
f 163 165 166
f 167 168 169
f 167 169 170
f 171 172 173
f 171 173 174
f 175 176 177
f 175 177 178
f 179 180 181
f 179 181 182
f 183 184 185
f 183 185 186
f 187 188 189
f 187 189 190
f 191 192 193
f 191 193 194
f 195 196 197
f 195 197 198
f 199 200 201
f 199 201 202
f 203 204 205
f 203 205 206
f 207 208 209
f 207 209 210
